<svg xmlns="http://www.w3.org/2000/svg" width="15" height="15" viewBox="0 0 15 15"><g><g><g><g><g><g><path fill="#c42126" d="M1.19 8.09h12.62z"/></g><g><path fill="#c42126" d="M1.85 4.63h11.3z"/></g><g><path fill="#c42126" d="M1.4 5.79h12.2z"/></g><g><path fill="#c42126" d="M7.5 1.16a2.3 2.3 0 0 0-.37 0h.74a2.3 2.3 0 0 0-.37 0z"/></g><g><path fill="#c42126" d="M1.19 6.94h12.62z"/></g></g><g><path fill="#e7e7e7" d="M9.37 3.5h3a6.44 6.44 0 0 0-1.24-1.15H8.89c.2.365.362.75.48 1.15z"/></g><g><path fill="#dc3027" d="M8.89 2.33h2.27a6.22 6.22 0 0 0-3.29-1.15h-.2c.58.07.83.49 1.22 1.15z"/></g><g><path fill="#e7e7e7" d="M13.6 5.79a6.06 6.06 0 0 0-.45-1.16H9.67c.07.37.13.76.17 1.16z"/></g><g><path fill="#dc3027" d="M9.5 4.63h3.68a6.68 6.68 0 0 0-.78-1.13H9.19c.123.371.226.748.31 1.13z"/></g><g><path fill="#e7e7e7" d="M9.97 8.09h3.84a5.68 5.68 0 0 0 0-.59 5 5 0 0 0 0-.56H9.97c.01.38.01.77 0 1.15z"/></g><g><path fill="#dc3027" d="M13.81 6.94a5.55 5.55 0 0 0-.21-1.15H9.68c0 .37.06.76.07 1.15z"/></g><g><path fill="#e7e7e7" d="M9.6 10.4h3.54c.187-.37.34-.754.46-1.15H9.78c-.05.39-.1.78-.18 1.15z"/></g><g><path fill="#dc3027" d="M13.59 9.25a6.59 6.59 0 0 0 .22-1.16h-4c0 .39 0 .78-.08 1.16z"/></g><g><path fill="#e7e7e7" d="M11.11 12.7a6.25 6.25 0 0 0 1.26-1.15h-3a6.56 6.56 0 0 1-.5 1.15z"/></g><g><g><path fill="#dc3027" d="M9.29 11.55h3.08a5.88 5.88 0 0 0 .76-1.15H9.58a11.38 11.38 0 0 1-.29 1.15z"/></g><g><path fill="#dc3027" d="M7.5 13.84a6.31 6.31 0 0 0 3.61-1.14H8.82c-.41.71-.68 1.14-1.32 1.14z"/></g></g><g/><g><path fill="#f3f4f5" d="M9.1 2.33H3.84A6.44 6.44 0 0 0 2.6 3.5h7a5.82 5.82 0 0 0-.5-1.17z"/></g><g><path fill="#e73625" d="M3.84 2.33H9.1a2 2 0 0 0-1.42-1.15h-.55a6.22 6.22 0 0 0-3.29 1.15z"/></g><g><path fill="#f3f4f5" d="M1.4 5.79h8.64c0-.4-.1-.79-.17-1.16h-8a6.06 6.06 0 0 0-.47 1.16z"/></g><g><path fill="#e73625" d="M2.6 3.5a6.68 6.68 0 0 0-.75 1.15h8a9.22 9.22 0 0 0-.27-1.15z"/></g><g><path fill="#f3f4f5" d="M1.16 7.5a5.68 5.68 0 0 0 0 .59h8.95a11 11 0 0 0 0-1.15H1.19a5.12 5.12 0 0 0-.03.56z"/></g><g><path fill="#e73625" d="M1.19 6.94h8.92c0-.39 0-.78-.08-1.15H1.4c-.11.375-.18.76-.21 1.15z"/></g><g><path fill="#f3f4f5" d="M10.03 9.25H1.41c.115.398.27.783.46 1.15h8c.06-.37.12-.76.16-1.15z"/></g><g><path fill="#e73625" d="M1.41 9.25h8.62c0-.38.07-.77.09-1.16H1.19c.038.392.112.78.22 1.16z"/></g><g><path fill="#f3f4f5" d="M3.89 12.7h5.19a6.56 6.56 0 0 0 .5-1.15H2.63a6 6 0 0 0 1.26 1.15z"/></g><g><g><path fill="#e73625" d="M1.87 10.4c.207.412.462.798.76 1.15h6.94a9.22 9.22 0 0 0 .29-1.15z"/></g><g><path fill="#e73625" d="M7.23 13.83h.27a1.9 1.9 0 0 0 1.58-1.13H3.89a6.25 6.25 0 0 0 3.34 1.13z"/></g></g><g><path fill="#283991" d="M7.37 1.17a6.32 6.32 0 0 0-6.18 5.76h6.18z"/></g><g><g><path fill="#efefef" d="M2.43 4.75l.1.3h.31l-.25.19.1.3-.25-.19-.26.15.1-.3-.25-.19h.3z"/></g><g><path fill="#efefef" d="M2.43 5.8l.1.3h.31l-.25.19.1.3-.25-.19-.26.19.1-.3-.25-.19h.3z"/></g><g><path fill="#efefef" d="M3.5 3.18l.1.3h.31l-.25.19.1.3-.26-.19-.25.19.1-.3-.27-.17h.32z"/></g><g><path fill="#efefef" d="M3.5 4.23l.1.3h.31l-.25.18.1.3-.26-.18-.25.18.1-.3-.27-.21h.32z"/></g><g><path fill="#efefef" d="M3.5 5.28l.1.3h.31l-.25.18.1.3-.26-.18-.25.18.1-.3-.26-.18h.31z"/></g><g><path fill="#efefef" d="M1.63 6.06l-.13-.3.26-.19H1.5l-.09.32z"/></g><g><path fill="#efefef" d="M2.18 4.5l.25-.19.25.19-.1-.3.26-.19H2.5l-.1-.3-.1.3h-.09l-.06.1.11.09z"/></g><g><path fill="#efefef" d="M3.5 2.72l.25.19-.1-.3.26-.19h-.2c-.16.12-.3.24-.45.37v.11z"/></g><g><path fill="#efefef" d="M4.28 2.38l.22-.18.25.18-.1-.3.26-.18h-.28l-.31.17.07.05z"/></g><g><path fill="#efefef" d="M4.5 2.65l.1.3h.31l-.25.19.1.3-.26-.19-.25.19.1-.3-.26-.19h.41z"/></g><g><path fill="#efefef" d="M4.5 3.7l.1.3h.31l-.25.19.1.3-.26-.19-.21.2.1-.3-.26-.2h.37z"/></g><g><path fill="#efefef" d="M4.5 4.75l.1.3h.31l-.25.19.1.3-.26-.19-.21.15.1-.3-.26-.19h.37z"/></g><g><path fill="#efefef" d="M4.5 5.8l.1.3h.31l-.25.19.1.3-.26-.19-.25.19.1-.3-.22-.19h.37z"/></g><g><path fill="#efefef" d="M5.58 2.13l.1.3h.31l-.25.18.1.3-.25-.18-.25.18.1-.3-.26-.18h.32z"/></g><g><path fill="#efefef" d="M5.58 3.18l.1.3h.31l-.25.19.1.3-.25-.19-.25.19.1-.3-.26-.17h.32z"/></g><g><path fill="#efefef" d="M5.58 4.23l.1.3h.31l-.25.18.1.3-.25-.18-.25.18.1-.3-.26-.21h.32z"/></g><g><path fill="#efefef" d="M5.58 5.28l.1.3h.31l-.25.18.1.3-.25-.18-.25.18.1-.3-.26-.18h.32z"/></g><g><path fill="#efefef" d="M6.63 1.6l.1.3h.32l-.26.19.1.3-.25-.19-.25.19.1-.3-.26-.19h.32z"/></g><g><path fill="#efefef" d="M6.63 2.65l.1.3h.32l-.26.19.1.3-.25-.19-.25.19.1-.3-.26-.19h.32z"/></g><g><path fill="#efefef" d="M6.63 3.7l.1.3h.32l-.26.19.1.3-.25-.19-.25.2.1-.3-.26-.2h.32z"/></g><g><path fill="#efefef" d="M6.63 4.75l.1.3h.32l-.26.19.1.3-.25-.19-.25.15.1-.3-.26-.19h.32z"/></g><g><path fill="#efefef" d="M6.63 5.8l.1.3h.32l-.26.19.1.3-.25-.19-.25.19.1-.3-.26-.19h.32z"/></g></g></g><g opacity=".3"><path fill="none" stroke="#1c2042" stroke-miterlimit="50" d="M1 7.5a6.5 6.5 0 1 1 13 0 6.5 6.5 0 0 1-13 0z"/></g></g></g></g></svg>