<svg xmlns="http://www.w3.org/2000/svg" width="104" height="39" viewBox="0 0 104 39"><g><g><g><path fill="#ffffff" d="M23.436 29.8c-1.781 2.622-5.765 4.107-9.08 3.173-1.95-.555-3.535-1.868-4.68-3.422-2.286-3.103-2.944-7.028-2.693-10.791.092-1.717.428-3.411.997-5.033.97-2.644 2.499-5.398 4.951-7.122 1.261-.886 2.878-1.343 4.378-1.017l.051.01a4.29 4.29 0 0 1 3.185 3.041c.285 1.121-.092 2.27-.45 3.381-.648 2.005-1.172 4.091-.9 6.15.309 2.332 1.665 4.359 3.387 6.018.74.708 1.437 1.574 1.618 2.569.196 1.061-.155 2.145-.764 3.042zm4.838-8.138c-.86-1.034-2.056-1.887-2.648-3.102a4.184 4.184 0 0 1-.296-2.471c.288-1.925 1.252-3.827 1.433-5.835a8.824 8.824 0 0 0-.91-4.683l-.018-.031C24.492 2.887 21.903.933 18.886.235l-.092-.02A11.994 11.994 0 0 0 13.8.205a13.218 13.218 0 0 0-6.066 3.19C5.19 5.68 3.395 8.638 2.222 11.75 1.032 14.902.637 18.308.828 21.656c.29 5.108 2.358 10.503 6.516 13.923a14.319 14.319 0 0 0 7.864 3.207c5.755.462 11.614-2.502 14.122-7.2 1.8-3.372 1.228-7.185-1.056-9.924z"/></g><g><path fill="#ffffff" d="M44.076 14.145a3.62 3.62 0 0 1-.617-2.156 3.579 3.579 0 0 1 .617-2.147c.412-.569 1.023-.853 1.833-.853.784-.001 1.382.28 1.794.843.412.564.618 1.283.618 2.157 0 .89-.206 1.616-.618 2.177-.412.56-1.01.841-1.794.841-.806.001-1.417-.286-1.833-.862zm2.72-7.45c-1.229 0-2.137.393-2.725 1.177h-.51V2.775h-2.745V17.03h2.646v-.924h.51c.628.784 1.57 1.176 2.823 1.176 1.308 0 2.348-.493 3.118-1.48.77-1 1.156-2.272 1.156-3.813 0-1.541-.385-2.809-1.156-3.803a3.743 3.743 0 0 0-3.118-1.49z"/></g><g><path fill="#ffffff" d="M58.598 10.48h-4.313c.288-1.15 1.033-1.726 2.235-1.726 1.203 0 1.896.575 2.078 1.726zm2.802.998c-.03-1.41-.478-2.56-1.342-3.449-.865-.889-2.04-1.333-3.53-1.333-1.55-.004-2.783.47-3.698 1.422s-1.372 2.229-1.372 3.832c.003 1.626.466 2.923 1.387 3.89.92.966 2.172 1.45 3.752 1.45 1.334 0 2.4-.295 3.196-.883a3.884 3.884 0 0 0 1.511-2.458H58.52c-.26.705-.887 1.058-1.881 1.058-1.556.001-2.373-.9-2.45-2.704H61.4v-.825z"/></g><g><path fill="#ffffff" d="M64.404 13.714c0-.902.626-1.351 1.879-1.346h2.157v.629a1.994 1.994 0 0 1-.63 1.527 2.28 2.28 0 0 1-1.625.589c-1.187 0-1.781-.467-1.781-1.399zm6.682 3.322v-6.547c.001-1.296-.4-2.252-1.206-2.869-.805-.616-1.926-.924-3.362-.924-1.242 0-2.261.285-3.06.852a2.774 2.774 0 0 0-1.235 2.284h2.727c.078-.719.647-1.078 1.705-1.078 1.19 0 1.785.523 1.785 1.568v.248h-2.688c-1.37 0-2.397.333-3.077.999a3.196 3.196 0 0 0-1.02 2.352c-.02.892.328 1.754.96 2.383.642.647 1.51.97 2.608.97 1.242 0 2.183-.37 2.824-1.11h.509v.863z"/></g><g><path fill="#ffffff" d="M82.16 17.027h-2.742v-5.704c0-.707-.167-1.25-.501-1.628-.334-.378-.82-.568-1.46-.57a2.005 2.005 0 0 0-1.618.74 2.743 2.743 0 0 0-.617 1.804v5.358h-2.745V6.95h2.654v.924h.51c.617-.784 1.552-1.176 2.804-1.176 1.253 0 2.183.358 2.79 1.075.616.72.924 1.74.924 3.059z"/></g><g><path fill="#ffffff" d="M91.749 9.714h-2.725c-.123-.6-.665-.9-1.627-.9s-1.452.286-1.47.861a.608.608 0 0 0 .244.54c.258.145.54.24.834.283l1.823.276c2.143.328 3.215 1.404 3.215 3.229 0 .901-.392 1.672-1.177 2.314-.784.64-1.882.96-3.293.96-1.489 0-2.622-.301-3.402-.903-.779-.602-1.227-1.445-1.342-2.528h2.724c.13.876.798 1.314 2.001 1.313 1.162 0 1.743-.366 1.744-1.097a.856.856 0 0 0-.333-.74 2.795 2.795 0 0 0-1.11-.383l-1.96-.312c-1.805-.34-2.707-1.265-2.706-2.774a2.796 2.796 0 0 1 1.088-2.275c.725-.588 1.793-.882 3.205-.882 1.24 0 2.237.274 2.99.823a3.048 3.048 0 0 1 1.277 2.195z"/></g><g><path fill="#ffffff" d="M42.856 29.966c0-.902.627-1.352 1.88-1.352h2.157v.62a2.003 2.003 0 0 1-.627 1.529 2.282 2.282 0 0 1-1.627.588c-1.19 0-1.783-.462-1.783-1.385zm6.684 3.301V26.72c0-1.292-.4-2.247-1.204-2.863-.804-.617-1.925-.925-3.363-.925-1.241 0-2.261.284-3.059.853a2.774 2.774 0 0 0-1.235 2.284h2.726c.076-.719.645-1.078 1.705-1.078 1.189 0 1.783.522 1.783 1.568v.255h-2.685c-1.373 0-2.399.334-3.078 1a3.183 3.183 0 0 0-1.019 2.353 3.26 3.26 0 0 0 .96 2.382c.64.647 1.51.97 2.608.97 1.241 0 2.182-.37 2.822-1.11h.518v.862z"/></g><g><path fill="#ffffff" d="M53.753 30.062c-.426-.51-.636-1.182-.636-2.02-.002-.84.21-1.519.636-2.034a2.171 2.171 0 0 1 1.773-.775c.786.001 1.394.263 1.824.784a3.43 3.43 0 0 1 0 4.01c-.431.529-1.04.793-1.824.793-.765 0-1.348-.248-1.773-.758zm4.231-5.946h-.51c-.51-.784-1.41-1.176-2.704-1.176-1.335 0-2.404.474-3.207 1.422-.803.948-1.204 2.173-1.204 3.675-.001 1.502.397 2.723 1.195 3.665.798.942 1.863 1.413 3.196 1.413 1.203 0 2.079-.387 2.626-1.157h.516v.588c0 1.804-.784 2.706-2.353 2.706-1.241-.002-1.934-.414-2.078-1.236h-2.725a3.262 3.262 0 0 0 1.45 2.51c.863.588 1.994.882 3.392.882 1.503 0 2.722-.418 3.657-1.254.934-.836 1.402-1.96 1.402-3.373v-9.586H57.99z"/></g><g><path fill="#ffffff" d="M68.734 26.724H64.42c.287-1.15 1.032-1.726 2.234-1.726 1.203 0 1.896.575 2.079 1.726zm2.802 1c-.035-1.413-.484-2.564-1.347-3.453-.863-.889-2.04-1.333-3.529-1.333-1.55-.004-2.784.47-3.699 1.422-.914.952-1.372 2.23-1.372 3.832.001 1.623.462 2.917 1.383 3.884.922.967 2.172 1.45 3.753 1.45 1.333 0 2.398-.294 3.196-.882a3.871 3.871 0 0 0 1.511-2.45h-2.778c-.26.706-.887 1.059-1.88 1.059-1.557 0-2.374-.902-2.451-2.706h7.213z"/></g><g><path fill="#ffffff" d="M82.181 33.27h-2.744v-5.703c0-.707-.167-1.25-.5-1.628-.333-.37-.82-.567-1.46-.567a2 2 0 0 0-1.617.74 2.734 2.734 0 0 0-.618 1.805v5.35h-2.745V23.195h2.647v.925h.509c.616-.785 1.55-1.177 2.803-1.177s2.185.36 2.795 1.079c.616.718.925 1.738.925 3.059z"/></g><g><path fill="#ffffff" d="M89.984 29.88h2.706a3.823 3.823 0 0 1-1.461 2.647c-.843.666-1.891.999-3.144.999-1.555 0-2.788-.48-3.7-1.44-.91-.961-1.368-2.245-1.371-3.853 0-1.594.457-2.875 1.372-3.842.915-.966 2.148-1.45 3.699-1.451 1.254 0 2.29.316 3.107.95a3.638 3.638 0 0 1 1.42 2.52h-2.726c-.222-.785-.817-1.177-1.785-1.177-.81 0-1.404.275-1.782.825-.379.55-.569 1.269-.57 2.156 0 .888.193 1.617.579 2.186.386.57.977.854 1.773.853 1.087 0 1.714-.457 1.883-1.372z"/></g><g><path fill="#ffffff" d="M97.414 37.192h-2.745l2.138-4.959-4.274-9.038h2.861l2.51 5.363h.51l2.314-5.363h2.763z"/></g><g><path fill="#ffffff" d="M96.215 6.568c.222 0 .333.078.333.25s-.11.259-.333.259h-.36v-.51zm-.377 1.986v-.89h.29a.324.324 0 0 1 .37.28c.016.082.026.165.032.248.003.083.012.167.025.25.01.062.026.1.047.112h.837v-.06c-.033-.016-.055-.056-.066-.121a1.57 1.57 0 0 1-.026-.28 1.534 1.534 0 0 0-.04-.293.579.579 0 0 0-.37-.446v-.02a.623.623 0 0 0 .434-.633.66.66 0 0 0-.3-.584c-.22-.14-.478-.211-.74-.202h-1.325v2.641zm-1.128.187a2.07 2.07 0 0 1-.564-1.49 2.062 2.062 0 0 1 .564-1.48 2.014 2.014 0 0 1 2.848 0c.375.4.574.932.555 1.48a2.062 2.062 0 0 1-.555 1.49 2.014 2.014 0 0 1-2.848 0zm3.19.302a2.427 2.427 0 0 0 .718-1.793 2.486 2.486 0 0 0-4.972 0A2.486 2.486 0 0 0 97.9 9.043z"/></g></g></g></svg>