<svg xmlns="http://www.w3.org/2000/svg" width="15" height="15" viewBox="0 0 15 15"><g><g><g><g><path fill="#f0f0f0" d="M1.005 7.5a6.5 6.5 0 1 1 13 0 6.5 6.5 0 0 1-13 0z"/></g><g><path fill="#0052b4" d="M13.605 9.76a6.51 6.51 0 0 0 0-4.52h-12.2a6.51 6.51 0 0 0 0 4.52l6.1.57z"/></g><g><path fill="#d80027" d="M7.505 14a6.51 6.51 0 0 0 6.1-4.239l-12.2-.001a6.51 6.51 0 0 0 6.1 4.24z"/></g><g opacity=".3"><path fill="none" stroke="#1c2042" stroke-miterlimit="50" d="M1.005 7.5a6.5 6.5 0 1 1 13 0 6.5 6.5 0 0 1-13 0z"/></g></g></g></g></svg>