<?xml version="1.0" encoding="utf-8"?>
<!-- Generator: Adobe Illustrator 24.0.1, SVG Export Plug-In . SVG Version: 6.00 Build 0)  -->
<svg version="1.1" id="Capa_1" xmlns="http://www.w3.org/2000/svg" xmlns:xlink="http://www.w3.org/1999/xlink" x="0px" y="0px"
	 viewBox="0 0 480 480" style="enable-background:new 0 0 480 480;" xml:space="preserve">
<style type="text/css">
	.st0{fill:#FFFFFF;}
</style>
<path class="st0" d="M278.9,17.6c-5.6-2.7-12.1-2-16.9,1.9L106.4,144H32c-17.6,0-32,14.4-32,32v128c0,17.7,14.4,32,32,32h74.4
	L262,460.5c2.9,2.3,6.5,3.5,10,3.5c2.4,0,4.7-0.5,6.9-1.6c5.5-2.7,9.1-8.3,9.1-14.4V32C288,25.9,284.5,20.3,278.9,17.6z"/>
<path class="st0" d="M469.8,315.5L469.8,315.5c-7,7-18.3,7-25.3,0L318.7,189.8c-7-7-7-18.3,0-25.3v0c7-7,18.3-7,25.3,0l125.7,125.7
	C476.7,297.2,476.7,308.5,469.8,315.5z"/>
<path class="st0" d="M469.8,164.5L469.8,164.5c7,7,7,18.3,0,25.3L344,315.5c-7,7-18.3,7-25.3,0l0,0c-7-7-7-18.3,0-25.3l125.7-125.7
	C451.4,157.5,462.8,157.5,469.8,164.5z"/>
</svg>
